<svg xmlns="http://www.w3.org/2000/svg" viewBox="0 0 512 512" role="img" aria-label="Speak app icon">
  <rect width="512" height="512" rx="112" fill="#2563eb" />
  <path
    d="M128 176c0-26.5 21.5-48 48-48h160c26.5 0 48 21.5 48 48v112c0 26.5-21.5 48-48 48H248l-64 56v-56h-8c-26.5 0-48-21.5-48-48V176z"
    fill="#ffffff"
  />
  <g fill="#2563eb">
    <rect x="176" y="216" width="20" height="48" rx="10" />
    <rect x="212" y="196" width="20" height="88" rx="10" />
    <rect x="248" y="176" width="20" height="128" rx="10" />
    <rect x="284" y="196" width="20" height="88" rx="10" />
    <rect x="320" y="216" width="20" height="48" rx="10" />
  </g>
</svg>
